<svg width="106" height="98" viewBox="0 0 106 98" fill="none" xmlns="http://www.w3.org/2000/svg">
<path fill-rule="evenodd" clip-rule="evenodd" d="M73.5462 17.3158C72.0453 15.5531 70.5444 14.7483 68.2556 14.7483H17.5819C16.3812 14.7483 15.4056 13.8286 15.293 12.5985L14.5801 4.01442C14.4675 2.71149 13.5295 1.64232 12.2537 1.40856L3.30468 0.0328136C1.76627 -0.200948 0.302901 0.837566 0.0402458 2.40492C-0.222409 3.93778 0.828212 5.43232 2.3291 5.70057V5.70057C5.6673 6.28761 8.18958 9.05227 8.46872 12.4302L11.447 48.4713C11.8597 53.5297 15.9872 57.4347 20.9776 57.4347H61.9143C66.6796 57.4347 70.732 53.8746 71.4074 49.0423L74.972 23.9033C75.3097 21.6079 75.0471 19.0786 73.5462 17.3158" fill="url(#paint0_linear_141_873)"/>
<g filter="url(#filter0_f_141_873)">
<rect x="17.8447" y="25" width="45" height="27" rx="5" fill="#E46800" fill-opacity="0.5"/>
</g>
<g filter="url(#filter1_b_141_873)">
<mask id="path-3-outside-1_141_873" maskUnits="userSpaceOnUse" x="21.5002" y="14.168" width="84" height="84" fill="black">
<rect fill="white" x="21.5002" y="14.168" width="84" height="84"/>
<path fill-rule="evenodd" clip-rule="evenodd" d="M30.2792 31.2052C27.7903 31.2052 26.1583 32.0803 24.5262 33.9972C22.8941 35.914 22.6085 38.6643 22.9758 41.1604L26.8519 68.4964C27.5863 73.7511 31.9929 77.6223 37.1747 77.6223H81.6892C87.1158 77.6223 91.6039 73.3761 92.0527 67.8755L95.8065 22.4502L101.968 21.3668C103.6 21.0751 104.742 19.4499 104.456 17.7831C104.171 16.0787 102.58 14.9495 100.907 15.2037L91.1755 16.6996C89.7883 16.9538 88.7682 18.1164 88.6458 19.5332L87.8706 28.8675C87.7482 30.2051 86.6873 31.2052 85.3817 31.2052H30.2792ZM82.3433 84.209C85.7707 84.209 88.5452 87.0426 88.5452 90.5429C88.5452 94.0016 85.7707 96.8352 82.3433 96.8352C78.9568 96.8352 76.1823 94.0016 76.1823 90.5429C76.1823 87.0426 78.9568 84.209 82.3433 84.209ZM36.442 84.209C39.8693 84.209 42.6438 87.0426 42.6438 90.5429C42.6438 94.0016 39.8693 96.8352 36.442 96.8352C33.0554 96.8352 30.2809 94.0016 30.2809 90.5429C30.2809 87.0426 33.0554 84.209 36.442 84.209Z"/>
</mask>
<path fill-rule="evenodd" clip-rule="evenodd" d="M30.2792 31.2052C27.7903 31.2052 26.1583 32.0803 24.5262 33.9972C22.8941 35.914 22.6085 38.6643 22.9758 41.1604L26.8519 68.4964C27.5863 73.7511 31.9929 77.6223 37.1747 77.6223H81.6892C87.1158 77.6223 91.6039 73.3761 92.0527 67.8755L95.8065 22.4502L101.968 21.3668C103.6 21.0751 104.742 19.4499 104.456 17.7831C104.171 16.0787 102.58 14.9495 100.907 15.2037L91.1755 16.6996C89.7883 16.9538 88.7682 18.1164 88.6458 19.5332L87.8706 28.8675C87.7482 30.2051 86.6873 31.2052 85.3817 31.2052H30.2792ZM82.3433 84.209C85.7707 84.209 88.5452 87.0426 88.5452 90.5429C88.5452 94.0016 85.7707 96.8352 82.3433 96.8352C78.9568 96.8352 76.1823 94.0016 76.1823 90.5429C76.1823 87.0426 78.9568 84.209 82.3433 84.209ZM36.442 84.209C39.8693 84.209 42.6438 87.0426 42.6438 90.5429C42.6438 94.0016 39.8693 96.8352 36.442 96.8352C33.0554 96.8352 30.2809 94.0016 30.2809 90.5429C30.2809 87.0426 33.0554 84.209 36.442 84.209Z" fill="#FFCBB9" fill-opacity="0.35"/>
<path d="M24.5262 33.9972L25.2876 34.6455L25.2876 34.6455L24.5262 33.9972ZM22.9758 41.1604L23.9651 41.0148L23.9658 41.02L22.9758 41.1604ZM26.8519 68.4964L27.842 68.356L27.8423 68.358L26.8519 68.4964ZM92.0527 67.8755L91.0561 67.7942L91.0561 67.7932L92.0527 67.8755ZM95.8065 22.4502L94.8099 22.3678C94.8473 21.9148 95.1856 21.544 95.6333 21.4653L95.8065 22.4502ZM101.968 21.3668L102.143 22.3512L102.141 22.3516L101.968 21.3668ZM104.456 17.7831L103.471 17.952L103.47 17.9483L104.456 17.7831ZM100.907 15.2037L100.755 14.2153L100.756 14.215L100.907 15.2037ZM91.1755 16.6996L90.9953 15.716C91.0047 15.7143 91.0141 15.7127 91.0236 15.7112L91.1755 16.6996ZM88.6458 19.5332L87.6492 19.4505L87.6495 19.4472L88.6458 19.5332ZM87.8706 28.8675L88.8672 28.9503L88.8664 28.9586L87.8706 28.8675ZM23.7648 33.3489C24.638 32.3234 25.5562 31.5232 26.6367 30.9867C27.7233 30.4471 28.9115 30.2052 30.2792 30.2052V32.2052C29.1581 32.2052 28.2858 32.4009 27.5261 32.778C26.7603 33.1583 26.0465 33.7541 25.2876 34.6455L23.7648 33.3489ZM21.9864 41.3059C21.6 38.6792 21.8642 35.5811 23.7648 33.3489L25.2876 34.6455C23.9241 36.2469 23.6171 38.6494 23.9651 41.0148L21.9864 41.3059ZM25.8618 68.6368L21.9857 41.3008L23.9658 41.02L27.842 68.356L25.8618 68.6368ZM37.1747 78.6223C31.4817 78.6223 26.6633 74.3712 25.8615 68.6348L27.8423 68.358C28.5094 73.1311 32.5041 76.6223 37.1747 76.6223V78.6223ZM81.6892 78.6223H37.1747V76.6223H81.6892V78.6223ZM93.0494 67.9568C92.5599 73.9565 87.6562 78.6223 81.6892 78.6223V76.6223C86.5753 76.6223 90.648 72.7956 91.0561 67.7942L93.0494 67.9568ZM96.8031 22.5326L93.0494 67.9579L91.0561 67.7932L94.8099 22.3678L96.8031 22.5326ZM102.141 22.3516L95.9797 23.4351L95.6333 21.4653L101.794 20.3819L102.141 22.3516ZM105.442 17.6142C105.819 19.8165 104.323 21.9617 102.143 22.3512L101.792 20.3824C102.877 20.1884 103.665 19.0833 103.471 17.952L105.442 17.6142ZM100.756 14.215C102.966 13.8793 105.066 15.3709 105.443 17.6178L103.47 17.9483C103.275 16.7866 102.193 16.0196 101.057 16.1923L100.756 14.215ZM91.0236 15.7112L100.755 14.2153L101.059 16.192L91.3275 17.688L91.0236 15.7112ZM87.6495 19.4472C87.809 17.601 89.1459 16.0549 90.9953 15.716L91.3557 17.6833C90.4306 17.8528 89.7274 18.6319 89.6421 19.6193L87.6495 19.4472ZM86.874 28.7847L87.6492 19.4505L89.6424 19.616L88.8672 28.9503L86.874 28.7847ZM85.3817 30.2052C86.1437 30.2052 86.797 29.6261 86.8748 28.7764L88.8664 28.9586C88.6994 30.7841 87.2309 32.2052 85.3817 32.2052V30.2052ZM30.2792 30.2052H85.3817V32.2052H30.2792V30.2052ZM87.5452 90.5429C87.5452 87.5749 85.1986 85.209 82.3433 85.209V83.209C86.3427 83.209 89.5452 86.5103 89.5452 90.5429H87.5452ZM82.3433 95.8352C85.2029 95.8352 87.5452 93.465 87.5452 90.5429H89.5452C89.5452 94.5383 86.3385 97.8352 82.3433 97.8352V95.8352ZM77.1823 90.5429C77.1823 93.4693 79.5289 95.8352 82.3433 95.8352V97.8352C78.3848 97.8352 75.1823 94.5339 75.1823 90.5429H77.1823ZM82.3433 85.209C79.5331 85.209 77.1823 87.5706 77.1823 90.5429H75.1823C75.1823 86.5146 78.3805 83.209 82.3433 83.209V85.209ZM41.6438 90.5429C41.6438 87.5749 39.2972 85.209 36.442 85.209V83.209C40.4413 83.209 43.6438 86.5103 43.6438 90.5429H41.6438ZM36.442 95.8352C39.3015 95.8352 41.6438 93.465 41.6438 90.5429H43.6438C43.6438 94.5383 40.4371 97.8352 36.442 97.8352V95.8352ZM31.2809 90.5429C31.2809 93.4693 33.6275 95.8352 36.442 95.8352V97.8352C32.4834 97.8352 29.2809 94.5339 29.2809 90.5429H31.2809ZM36.442 85.209C33.6317 85.209 31.2809 87.5706 31.2809 90.5429H29.2809C29.2809 86.5146 32.4791 83.209 36.442 83.209V85.209Z" fill="url(#paint1_linear_141_873)" mask="url(#path-3-outside-1_141_873)"/>
</g>
<g filter="url(#filter2_bd_141_873)">
<mask id="path-5-inside-2_141_873" fill="white">
<path fill-rule="evenodd" clip-rule="evenodd" d="M43.7026 52.8678H55.0046C56.7182 52.8678 58.0647 51.451 58.0647 49.7425C58.0647 47.9923 56.7182 46.6172 55.0046 46.6172H43.7026C41.9889 46.6172 40.6424 47.9923 40.6424 49.7425C40.6424 51.451 41.9889 52.8678 43.7026 52.8678"/>
</mask>
<path fill-rule="evenodd" clip-rule="evenodd" d="M43.7026 52.8678H55.0046C56.7182 52.8678 58.0647 51.451 58.0647 49.7425C58.0647 47.9923 56.7182 46.6172 55.0046 46.6172H43.7026C41.9889 46.6172 40.6424 47.9923 40.6424 49.7425C40.6424 51.451 41.9889 52.8678 43.7026 52.8678" fill="url(#paint2_linear_141_873)"/>
<path d="M43.7026 52.6678H55.0046V53.0678H43.7026V52.6678ZM55.0046 52.6678C56.6021 52.6678 57.8647 51.3463 57.8647 49.7425H58.2647C58.2647 51.5557 56.8344 53.0678 55.0046 53.0678V52.6678ZM57.8647 49.7425C57.8647 48.0988 56.6038 46.8172 55.0046 46.8172V46.4172C56.8327 46.4172 58.2647 47.8859 58.2647 49.7425H57.8647ZM55.0046 46.8172H43.7026V46.4172H55.0046V46.8172ZM43.7026 46.8172C42.1033 46.8172 40.8424 48.0988 40.8424 49.7425H40.4424C40.4424 47.8859 41.8745 46.4172 43.7026 46.4172V46.8172ZM40.8424 49.7425C40.8424 51.3463 42.105 52.6678 43.7026 52.6678V53.0678C41.8728 53.0678 40.4424 51.5557 40.4424 49.7425H40.8424Z" fill="url(#paint3_linear_141_873)" fill-opacity="0.5" mask="url(#path-5-inside-2_141_873)"/>
</g>
<defs>
<filter id="filter0_f_141_873" x="3.84467" y="11" width="73" height="55" filterUnits="userSpaceOnUse" color-interpolation-filters="sRGB">
<feFlood flood-opacity="0" result="BackgroundImageFix"/>
<feBlend mode="normal" in="SourceGraphic" in2="BackgroundImageFix" result="shape"/>
<feGaussianBlur stdDeviation="7" result="effect1_foregroundBlur_141_873"/>
</filter>
<filter id="filter1_b_141_873" x="-2.16602" y="-9.83215" width="131.666" height="131.667" filterUnits="userSpaceOnUse" color-interpolation-filters="sRGB">
<feFlood flood-opacity="0" result="BackgroundImageFix"/>
<feGaussianBlur in="BackgroundImageFix" stdDeviation="12"/>
<feComposite in2="SourceAlpha" operator="in" result="effect1_backgroundBlur_141_873"/>
<feBlend mode="normal" in="SourceGraphic" in2="effect1_backgroundBlur_141_873" result="shape"/>
</filter>
<filter id="filter2_bd_141_873" x="25.6425" y="31.6172" width="47.4222" height="36.2506" filterUnits="userSpaceOnUse" color-interpolation-filters="sRGB">
<feFlood flood-opacity="0" result="BackgroundImageFix"/>
<feGaussianBlur in="BackgroundImageFix" stdDeviation="7.5"/>
<feComposite in2="SourceAlpha" operator="in" result="effect1_backgroundBlur_141_873"/>
<feColorMatrix in="SourceAlpha" type="matrix" values="0 0 0 0 0 0 0 0 0 0 0 0 0 0 0 0 0 0 127 0" result="hardAlpha"/>
<feOffset dx="5" dy="5"/>
<feGaussianBlur stdDeviation="5"/>
<feColorMatrix type="matrix" values="0 0 0 0 1 0 0 0 0 0.580392 0 0 0 0 0.247059 0 0 0 0.5 0"/>
<feBlend mode="normal" in2="effect1_backgroundBlur_141_873" result="effect2_dropShadow_141_873"/>
<feBlend mode="normal" in="SourceGraphic" in2="effect2_dropShadow_141_873" result="shape"/>
</filter>
<linearGradient id="paint0_linear_141_873" x1="75.1028" y1="0" x2="37.5485" y2="57.4328" gradientUnits="userSpaceOnUse">
<stop stop-color="#FFB37F"/>
<stop offset="1" stop-color="#FF7B0D"/>
</linearGradient>
<linearGradient id="paint1_linear_141_873" x1="91.5002" y1="24.6823" x2="39.4051" y2="89.2029" gradientUnits="userSpaceOnUse">
<stop stop-color="white" stop-opacity="0.25"/>
<stop offset="1" stop-color="white" stop-opacity="0"/>
</linearGradient>
<linearGradient id="paint2_linear_141_873" x1="41.8777" y1="47.7459" x2="61.1459" y2="49.497" gradientUnits="userSpaceOnUse">
<stop stop-color="white"/>
<stop offset="1" stop-color="white" stop-opacity="0.2"/>
</linearGradient>
<linearGradient id="paint3_linear_141_873" x1="56.1879" y1="48.714" x2="41.3971" y2="48.9415" gradientUnits="userSpaceOnUse">
<stop stop-color="white"/>
<stop offset="1" stop-color="white" stop-opacity="0"/>
</linearGradient>
</defs>
</svg>
